<svg xmlns="http://www.w3.org/2000/svg" viewBox="0 0 196 45.44"><defs><style>.cls-1{fill:#00afef;}.cls-2{fill:#b5b5b5;}.cls-3{fill:#21d0ff;}.cls-4{fill:#fff;}</style></defs><title>Fichier 1</title><g id="Calque_2" data-name="Calque 2"><g id="Calque_1-2" data-name="Calque 1"><path class="cls-1" d="M66.76,11.54a6.6,6.6,0,0,1,5.81-3.15,5.57,5.57,0,0,1,3.35,1.09,5.36,5.36,0,0,1,1.88,2.43,7.09,7.09,0,0,1,1.88-2.12,7.37,7.37,0,0,1,4.41-1.4,5.11,5.11,0,0,1,4.34,2.12A7.17,7.17,0,0,1,89.81,15V24.8a1.46,1.46,0,0,1-.46,1.09,1.55,1.55,0,0,1-1.11.45A1.52,1.52,0,0,1,86.7,24.8V15.57a5.56,5.56,0,0,0-.77-3.23,3.12,3.12,0,0,0-2.72-1.08q-3,0-4.92,3.28V24.8a1.46,1.46,0,0,1-.46,1.09,1.55,1.55,0,0,1-1.11.45,1.52,1.52,0,0,1-1.54-1.54V15.57a5.56,5.56,0,0,0-.77-3.23,3.12,3.12,0,0,0-2.72-1.08q-3,0-4.92,3.28V24.8a1.46,1.46,0,0,1-.46,1.09,1.54,1.54,0,0,1-1.11.45,1.52,1.52,0,0,1-1.54-1.54V10.14A1.55,1.55,0,0,1,64.1,9a1.46,1.46,0,0,1,1.09-.46,1.58,1.58,0,0,1,1.57,1.57Z"/><path class="cls-1" d="M98.94,22.24a5.79,5.79,0,0,0,4.1,1.37,9.81,9.81,0,0,0,4.41-.89,2.45,2.45,0,0,1,1.06-.31,1.26,1.26,0,0,1,.85.38,1.14,1.14,0,0,1,.41.85,1.34,1.34,0,0,1-.74,1.28q-.74.39-1.32.67a9,9,0,0,1-1.26.48,12.85,12.85,0,0,1-3.56.45,8.76,8.76,0,0,1-6.53-2.36A9.14,9.14,0,0,1,94,17.45,9.86,9.86,0,0,1,96,11.2a7.43,7.43,0,0,1,6.22-2.8,7.55,7.55,0,0,1,6.05,2.6,8.91,8.91,0,0,1,2.09,6,1.49,1.49,0,0,1-1.57,1.54H97.19A5.77,5.77,0,0,0,98.94,22.24ZM102.22,11a4.68,4.68,0,0,0-4.44,2.7A5.39,5.39,0,0,0,97.19,16h10.09a5.18,5.18,0,0,0-1.78-3.83A4.9,4.9,0,0,0,102.22,11Z"/><path class="cls-1" d="M120.94,23.78a3.89,3.89,0,0,0,1.3-.15,2.33,2.33,0,0,1,.85-.15,1.22,1.22,0,0,1,.84.34,1.32,1.32,0,0,1,.38,1,1,1,0,0,1-.68,1,6.2,6.2,0,0,1-2.51.68,15.9,15.9,0,0,1-1.9-.1A4,4,0,0,1,115.69,22V11.4h-2.43a.57.57,0,0,1-.65-.65.78.78,0,0,1,.31-.58l4.65-4.55a.86.86,0,0,1,.58-.31.6.6,0,0,1,.46.2.69.69,0,0,1,.19.48V8.73h3.86a1.33,1.33,0,1,1,0,2.67H118.8V21.73a1.91,1.91,0,0,0,.79,1.78A2.62,2.62,0,0,0,120.94,23.78Z"/><path class="cls-1" d="M130.8,11.61q2.39-3.21,5.37-3.21h.17a1.44,1.44,0,0,1,1.08.44,1.54,1.54,0,0,1,.43,1.11A1.35,1.35,0,0,1,137.4,11a1.64,1.64,0,0,1-1.13.39h-.17a5.68,5.68,0,0,0-3.06.84,7.27,7.27,0,0,0-2.24,2.17V24.8a1.46,1.46,0,0,1-.46,1.09,1.54,1.54,0,0,1-1.11.45,1.52,1.52,0,0,1-1.54-1.54V10.14A1.55,1.55,0,0,1,128.13,9a1.46,1.46,0,0,1,1.09-.46,1.58,1.58,0,0,1,1.57,1.57Z"/><path class="cls-1" d="M141.57,9.62a15,15,0,0,1,5.95-1.23,6.91,6.91,0,0,1,5.4,2.12,6.53,6.53,0,0,1,1.71,4.62V24.8a1.46,1.46,0,0,1-.46,1.09,1.54,1.54,0,0,1-1.11.45,1.52,1.52,0,0,1-1.54-1.54v-.89A9.71,9.71,0,0,1,149,25.69a8.43,8.43,0,0,1-3.95.82,5.78,5.78,0,0,1-3.93-1.37,4.76,4.76,0,0,1-1.64-3.76,4.68,4.68,0,0,1,1.91-4,9.73,9.73,0,0,1,5.95-1.57h4.14v-.27a4.12,4.12,0,0,0-1.13-3.26,5.18,5.18,0,0,0-3.45-1,15.14,15.14,0,0,0-4.55.82,2.55,2.55,0,0,1-.62.07,1.08,1.08,0,0,1-.72-.36,1.47,1.47,0,0,1-.38-1.11A1.22,1.22,0,0,1,141.57,9.62ZM142.63,21q0,2.74,3.62,2.73a6,6,0,0,0,3-.79,8.94,8.94,0,0,0,2.27-1.78V18.34h-3.73A9.45,9.45,0,0,0,144,19,2.13,2.13,0,0,0,142.63,21Z"/><path class="cls-1" d="M168.61,11.26q-3,0-5.61,3.28V24.8a1.46,1.46,0,0,1-.46,1.09,1.54,1.54,0,0,1-1.11.45,1.52,1.52,0,0,1-1.54-1.54V10.14A1.53,1.53,0,0,1,160.34,9a1.49,1.49,0,0,1,1.09-.44,1.55,1.55,0,0,1,1.11.44,1.5,1.5,0,0,1,.46,1.13v1.4a11.71,11.71,0,0,1,2.36-2,7.43,7.43,0,0,1,3.71-1.13,6.82,6.82,0,0,1,2.89.53,5.62,5.62,0,0,1,1.91,1.45,7,7,0,0,1,1.61,4.72V24.8A1.46,1.46,0,0,1,175,25.9a1.54,1.54,0,0,1-1.11.45,1.52,1.52,0,0,1-1.54-1.54V15.43a4.84,4.84,0,0,0-.87-3.06A3.46,3.46,0,0,0,168.61,11.26Z"/><path class="cls-1" d="M184.58,22.24a5.79,5.79,0,0,0,4.1,1.37,9.81,9.81,0,0,0,4.41-.89,2.45,2.45,0,0,1,1.06-.31,1.26,1.26,0,0,1,.85.38,1.14,1.14,0,0,1,.41.85,1.34,1.34,0,0,1-.74,1.28q-.74.39-1.32.67a9,9,0,0,1-1.26.48,12.85,12.85,0,0,1-3.56.45A8.76,8.76,0,0,1,182,24.15a9.14,9.14,0,0,1-2.32-6.7,9.86,9.86,0,0,1,1.95-6.26,7.43,7.43,0,0,1,6.22-2.8,7.55,7.55,0,0,1,6.05,2.6A8.91,8.91,0,0,1,196,17a1.49,1.49,0,0,1-1.57,1.54H182.84A5.77,5.77,0,0,0,184.58,22.24ZM187.86,11a4.68,4.68,0,0,0-4.44,2.7,5.39,5.39,0,0,0-.58,2.29h10.09a5.18,5.18,0,0,0-1.78-3.83A4.9,4.9,0,0,0,187.86,11Z"/><path class="cls-2" d="M63.49,34.3h.93v8.4h-.93Z"/><path class="cls-2" d="M66.47,34.3H68l2.67,7.62V34.3h.93v8.4H70.08L67.4,35.06v7.65h-.93Z"/><path class="cls-2" d="M72.74,34.3H78v.84H75.86v7.56h-.93V35.14H72.74Z"/><path class="cls-2" d="M79.18,34.3h.93v6q0,1.73,1.59,1.73t1.59-1.67V34.3h.93v6.4a2,2,0,0,1-.68,1.66,3.3,3.3,0,0,1-3.72,0,2.13,2.13,0,0,1-.65-1.67Z"/><path class="cls-2" d="M86.34,34.3h.93v8.4h-.93Z"/><path class="cls-2" d="M88.64,34.3h5.31v.84H91.75v7.56h-.93V35.14H88.64Z"/><path class="cls-2" d="M95.28,34.3h.93v8.4h-.93Z"/><path class="cls-2" d="M100.51,42l2-7.75h1l-2.45,8.4H99.94l-2.45-8.4h1Z"/><path class="cls-2" d="M104.57,42.71V34.3h4.17v.84H105.5v2.78h3v.84h-3v3.1h3.27v.84Z"/><path class="cls-2" d="M113.28,42.71V34.3h2.32a2.66,2.66,0,0,1,2.17.86,5.31,5.31,0,0,1,.73,3.27,6.2,6.2,0,0,1-.66,3.17,2.28,2.28,0,0,1-2.11,1.1Zm.93-.84h1.47a1.53,1.53,0,0,0,1.41-.73,5.59,5.59,0,0,0,.45-2.68,5.78,5.78,0,0,0-.41-2.46,1.51,1.51,0,0,0-1.49-.84h-1.43Z"/><path class="cls-2" d="M119.44,42.71l2.36-8.4H123l2.36,8.4h-1l-.65-2.41h-2.65l-.6,2.41Zm1.86-3.25h2.2l-1.1-4.53Z"/><path class="cls-2" d="M125.84,34.3h5.31v.84H129v7.56H128V35.14h-2.19Z"/><path class="cls-2" d="M131.49,42.71l2.36-8.4h1.24l2.36,8.4h-1l-.65-2.41h-2.65l-.6,2.41Zm1.86-3.25h2.2l-1.1-4.53Z"/><path class="cls-2" d="M146.92,42.71h-1.11a7.37,7.37,0,0,1-.21-1,7.94,7.94,0,0,1-.05-.94,1.83,1.83,0,0,0-.39-1.3,1.39,1.39,0,0,0-1.06-.41h-1.59v3.68h-.93V34.3h2.2a3,3,0,0,1,2.17.6,2.24,2.24,0,0,1,.59,1.65,1.8,1.8,0,0,1-1.64,2,1.8,1.8,0,0,1,1.17.47,1.67,1.67,0,0,1,.34,1.06q0,.63.18,1.82.1.57.33.6Zm-1.33-6.06q0-1.5-1.76-1.5h-1.31v3H144Q145.59,38.19,145.59,36.64Z"/><path class="cls-2" d="M148.41,42.71V34.3h4.17v.84h-3.24v2.78h3v.84h-3v3.1h3.27v.84Z"/><path class="cls-2" d="M154.26,34.3h2.23a2.75,2.75,0,0,1,2,.62,2.34,2.34,0,0,1,.62,1.73,2.53,2.53,0,0,1-.64,1.87,3.15,3.15,0,0,1-2.25.64h-1v3.54h-.93Zm.93.84v3.17h.93a2.46,2.46,0,0,0,1.65-.39,1.63,1.63,0,0,0,.41-1.23,1.52,1.52,0,0,0-.41-1.18,2.41,2.41,0,0,0-1.58-.38Z"/><path class="cls-2" d="M160.31,38.19a5.62,5.62,0,0,1,.68-3.06,2.63,2.63,0,0,1,4.14-.08,5.93,5.93,0,0,1,.69,3.32,6.52,6.52,0,0,1-.7,3.59,2.35,2.35,0,0,1-2,1,2.31,2.31,0,0,1-2.14-1A7.68,7.68,0,0,1,160.31,38.19Zm1,.06a8,8,0,0,0,.38,3,1.43,1.43,0,0,0,1.43.82,1.39,1.39,0,0,0,1.41-.84,8.24,8.24,0,0,0,.38-3q0-3.3-1.83-3.3T161.27,38.25Z"/><path class="cls-2" d="M172.89,42.71h-1.11a7.37,7.37,0,0,1-.21-1,7.94,7.94,0,0,1-.05-.94,1.83,1.83,0,0,0-.39-1.3,1.39,1.39,0,0,0-1.06-.41h-1.59v3.68h-.93V34.3h2.2a3,3,0,0,1,2.17.6,2.24,2.24,0,0,1,.59,1.65,1.8,1.8,0,0,1-1.64,2A1.8,1.8,0,0,1,172,39a1.67,1.67,0,0,1,.34,1.06q0,.63.18,1.82.1.57.33.6Zm-1.33-6.06q0-1.5-1.76-1.5h-1.31v3h1.46Q171.56,38.19,171.56,36.64Z"/><path class="cls-2" d="M173.73,34.3H179v.84h-2.19v7.56h-.93V35.14h-2.19Z"/><path class="cls-2" d="M180.37,34.3h.93v8.4h-.93Z"/><path class="cls-2" d="M183.35,34.3h1.53l2.67,7.62V34.3h.93v8.4H187l-2.67-7.65v7.65h-.93Z"/><path class="cls-2" d="M192.63,39.22v-.84h2.77v4.42h-.71V41.44a1.84,1.84,0,0,1-1.95,1.49,2.27,2.27,0,0,1-2-1,6.09,6.09,0,0,1-.68-3.33,6.67,6.67,0,0,1,.68-3.46,2.3,2.3,0,0,1,2.08-1.06,2.4,2.4,0,0,1,1.85.71,2.7,2.7,0,0,1,.66,1.92h-1q-.07-1.78-1.57-1.78a1.42,1.42,0,0,0-1.36.81,7,7,0,0,0-.42,2.9,6.06,6.06,0,0,0,.42,2.71,1.41,1.41,0,0,0,1.32.73,1.34,1.34,0,0,0,1.35-.79,5,5,0,0,0,.36-2.08Z"/><circle class="cls-1" cx="26.03" cy="22.83" r="22.6"/><circle class="cls-3" cx="27.28" cy="22.67" r="22.18"/><path class="cls-1" d="M1.35,39.75H1.29a1.34,1.34,0,0,1,0-2.67h0c.18,0,8.28-.3,15.07-18.82.2-.54.73-2,2-1.84,1.47.15,1.69,1.66,2.21,5.29A35,35,0,0,0,22,28.08c1.09-2.26,3.05-8,4.19-11.28.63-1.83,1.22-3.55,1.67-4.79.72-1.95,1.1-3,2.36-2.81a1.42,1.42,0,0,1,1.16,1.51c0,6.9,2.41,17.08,3.88,20.44.71-1.26,1.77-3.4,2.81-5.49,3.72-7.5,9.34-18.83,14.76-23.93a1.34,1.34,0,1,1,1.83,1.94C49.6,8.44,44.1,19.51,40.47,26.84c-3.34,6.73-3.83,7.6-4.95,7.78a1.74,1.74,0,0,1-1.42-.44c-1.89-1.62-4.08-10.43-5-17.71l-.41,1.19c-4.3,12.56-5,13.73-6.56,13.69-2.8-.09-3.43-4.55-4.11-9.27L18,21.67C10.81,39.26,2.27,39.75,1.35,39.75Z"/><path class="cls-4" d="M1.35,38.39H1.29a1.34,1.34,0,0,1,0-2.67h0c.18,0,8.28-.3,15.07-18.82.2-.54.73-2,2-1.84,1.47.15,1.69,1.66,2.21,5.29A35,35,0,0,0,22,26.72c1.09-2.26,3.05-8,4.19-11.28.63-1.83,1.22-3.55,1.67-4.79.72-1.95,1.1-3,2.36-2.81a1.42,1.42,0,0,1,1.16,1.51c0,6.9,2.41,17.08,3.88,20.44.71-1.26,1.77-3.4,2.81-5.49C41.79,16.8,47.42,5.47,52.83.36a1.34,1.34,0,1,1,1.83,1.94C49.6,7.08,44.1,18.15,40.47,25.48c-3.34,6.73-3.83,7.6-4.95,7.78a1.74,1.74,0,0,1-1.42-.44c-1.89-1.62-4.08-10.43-5-17.71l-.41,1.19C24.41,28.87,23.68,30,22.15,30c-2.8-.09-3.43-4.55-4.11-9.27L18,20.31C10.81,37.9,2.27,38.39,1.35,38.39Z"/></g></g></svg>